<svg width="24" height="24" viewBox="0 0 24 24" fill="none" xmlns="http://www.w3.org/2000/svg">
<path d="M23.3867 2.97333L21.5333 0.733333C21.1733 0.28 20.6267 0 20 0H4C3.37333 0 2.82667 0.28 2.45333 0.733333L0.613333 2.97333C0.226667 3.42667 0 4.02667 0 4.66667V21.3333C0 22.8 1.2 24 2.66667 24H21.3333C22.8 24 24 22.8 24 21.3333V4.66667C24 4.02667 23.7733 3.42667 23.3867 2.97333ZM12 19.3333L4.66667 12H9.33333V9.33333H14.6667V12H19.3333L12 19.3333ZM2.82667 2.66667L3.90667 1.33333H19.9067L21.16 2.66667H2.82667Z" fill="#9EC9EE"/>
</svg>
