<svg width="27" height="33" viewBox="0 0 27 33" fill="none" xmlns="http://www.w3.org/2000/svg">
<path d="M13.1282 32.4531C14.9333 32.4531 16.4103 30.9762 16.4103 29.1711H9.84615C9.84615 30.9762 11.3231 32.4531 13.1282 32.4531ZM22.9744 22.607V14.4018C22.9744 9.36389 20.2995 5.14646 15.5897 4.03056V2.91466C15.5897 1.55261 14.4903 0.453125 13.1282 0.453125C11.7662 0.453125 10.6667 1.55261 10.6667 2.91466V4.03056C5.97333 5.14646 3.28205 9.34748 3.28205 14.4018V22.607L0 25.889V27.53H26.2564V25.889L22.9744 22.607ZM19.6923 24.248H6.5641V14.4018C6.5641 10.3321 9.04205 7.01723 13.1282 7.01723C17.2144 7.01723 19.6923 10.3321 19.6923 14.4018V24.248Z" fill="#9EC9EE"/>
<circle cx="20" cy="6" r="5" fill="#81E8DE" stroke="white" stroke-width="2"/>
</svg>
